<svg width="34" height="36" viewBox="0 0 34 36" fill="none" xmlns="http://www.w3.org/2000/svg">
<rect width="26.6354" height="27.2965" rx="5" transform="matrix(0.996002 0.0893354 -0.0850284 0.996379 7.47095 5.75781)" fill="#FD7471"/>
<rect width="26.6354" height="27.2965" rx="5" transform="matrix(0.996002 0.0893354 -0.0850284 0.996379 5.27246 3.00537)" fill="#FACD51"/>
<rect x="0.455487" y="0.542857" width="25.6354" height="26.2965" rx="4.5" transform="matrix(0.996002 0.0893354 -0.0850284 0.996379 2.36902 -0.0387252)" fill="white" stroke="black"/>
<mask id="path-4-inside-1" fill="white">
<path fill-rule="evenodd" clip-rule="evenodd" d="M18.3806 18.5565C18.1177 21.6375 16.0589 23.979 13.7918 23.7757C11.533 23.5731 9.8937 20.9002 10.1567 17.8189C10.1881 17.45 10.4206 17.1699 10.6757 17.1928L17.9753 17.8475C18.23 17.8704 18.4121 18.1877 18.3806 18.5565ZM15.4465 21.612C15.4874 21.1327 14.8608 20.6851 14.048 20.6122C13.2349 20.5393 12.5423 20.8685 12.5014 21.3478C12.4605 21.8272 13.0868 22.2747 13.8999 22.3476C14.7127 22.4205 15.4056 22.0913 15.4465 21.612Z"/>
</mask>
<path fill-rule="evenodd" clip-rule="evenodd" d="M18.3806 18.5565C18.1177 21.6375 16.0589 23.979 13.7918 23.7757C11.533 23.5731 9.8937 20.9002 10.1567 17.8189C10.1881 17.45 10.4206 17.1699 10.6757 17.1928L17.9753 17.8475C18.23 17.8704 18.4121 18.1877 18.3806 18.5565ZM15.4465 21.612C15.4874 21.1327 14.8608 20.6851 14.048 20.6122C13.2349 20.5393 12.5423 20.8685 12.5014 21.3478C12.4605 21.8272 13.0868 22.2747 13.8999 22.3476C14.7127 22.4205 15.4056 22.0913 15.4465 21.612Z" fill="#252526"/>
<path d="M17.9753 17.8475L18.0603 16.8512L18.0603 16.8512L17.9753 17.8475ZM13.7068 24.7721C15.2332 24.909 16.6052 24.1798 17.5895 23.0603C18.5745 21.94 19.2289 20.3775 19.3766 18.6459L17.3846 18.4672C17.2695 19.8165 16.763 20.9652 16.0861 21.7351C15.4084 22.5058 14.6175 22.8457 13.8768 22.7793L13.7068 24.7721ZM9.16066 17.7296C9.01278 19.4624 9.39518 21.118 10.1764 22.3961C10.9566 23.6727 12.1839 24.6355 13.7068 24.7721L13.8768 22.7793C13.1409 22.7133 12.4191 22.2384 11.8807 21.3575C11.3433 20.4783 11.0376 19.2567 11.1527 17.9082L9.16066 17.7296ZM10.7607 16.1964C10.2142 16.1474 9.79802 16.4335 9.56199 16.7181C9.32292 17.0064 9.19151 17.368 9.16066 17.7296L11.1527 17.9082C11.1526 17.9085 11.1521 17.9151 11.1471 17.9281C11.1424 17.9402 11.1304 17.9663 11.1027 17.9998C11.0545 18.0578 10.8821 18.2153 10.5906 18.1892L10.7607 16.1964ZM18.0603 16.8512L10.7607 16.1964L10.5906 18.1892L17.8902 18.8439L18.0603 16.8512ZM19.3766 18.6459C19.4075 18.2838 19.3389 17.9041 19.1522 17.5778C18.968 17.256 18.6067 16.9002 18.0603 16.8512L17.8902 18.8439C17.5986 18.8178 17.4558 18.632 17.4184 18.5667C17.3968 18.5289 17.3894 18.5011 17.3868 18.4883C17.384 18.4745 17.3846 18.4677 17.3846 18.4672L19.3766 18.6459ZM13.963 21.6086C14.2231 21.6319 14.4048 21.7129 14.4887 21.773C14.529 21.8018 14.5218 21.8075 14.501 21.7726C14.4766 21.7315 14.4403 21.6424 14.4505 21.5227L16.4425 21.7013C16.5053 20.9648 16.0466 20.4328 15.646 20.1465C15.2237 19.8446 14.6858 19.6654 14.133 19.6158L13.963 21.6086ZM13.4974 21.4372C13.4872 21.5568 13.4364 21.6381 13.4054 21.6742C13.379 21.7049 13.3727 21.698 13.4173 21.6768C13.51 21.6327 13.7027 21.5853 13.963 21.6086L14.133 19.6158C13.5802 19.5663 13.02 19.647 12.553 19.8691C12.1098 20.0798 11.5682 20.5221 11.5054 21.2585L13.4974 21.4372ZM13.9849 21.3512C13.7247 21.3279 13.543 21.2469 13.4591 21.1869C13.4188 21.1581 13.4261 21.1524 13.4469 21.1874C13.4713 21.2284 13.5076 21.3175 13.4974 21.4372L11.5054 21.2585C11.4426 21.9949 11.901 22.5269 12.3017 22.8133C12.724 23.1152 13.262 23.2944 13.8149 23.344L13.9849 21.3512ZM14.4505 21.5227C14.4607 21.4029 14.5116 21.3216 14.5426 21.2855C14.5689 21.2548 14.5751 21.2618 14.5305 21.283C14.4377 21.3271 14.245 21.3746 13.9849 21.3512L13.8149 23.344C14.3676 23.3936 14.9278 23.3129 15.3948 23.0908C15.8378 22.8802 16.3796 22.4378 16.4425 21.7013L14.4505 21.5227Z" fill="black" mask="url(#path-4-inside-1)"/>
<mask id="path-6-inside-2" fill="white">
<path fill-rule="evenodd" clip-rule="evenodd" d="M18.557 10.513C19.0904 9.71739 19.8448 9.24536 20.6394 9.31663C22.0312 9.44146 23.0194 11.1861 22.8463 13.2144C22.6732 15.2426 21.4045 16.7848 20.0127 16.66C18.6209 16.5352 17.6327 14.7905 17.8058 12.7623C17.8086 12.7296 17.8117 12.697 17.815 12.6646C17.9438 12.8324 18.1223 12.9539 18.3394 13.004C18.937 13.1421 19.6004 12.6875 19.8212 11.9886C20.0421 11.2898 19.7366 10.6113 19.139 10.4732C18.9462 10.4287 18.7465 10.4458 18.557 10.513Z"/>
</mask>
<path fill-rule="evenodd" clip-rule="evenodd" d="M18.557 10.513C19.0904 9.71739 19.8448 9.24536 20.6394 9.31663C22.0312 9.44146 23.0194 11.1861 22.8463 13.2144C22.6732 15.2426 21.4045 16.7848 20.0127 16.66C18.6209 16.5352 17.6327 14.7905 17.8058 12.7623C17.8086 12.7296 17.8117 12.697 17.815 12.6646C17.9438 12.8324 18.1223 12.9539 18.3394 13.004C18.937 13.1421 19.6004 12.6875 19.8212 11.9886C20.0421 11.2898 19.7366 10.6113 19.139 10.4732C18.9462 10.4287 18.7465 10.4458 18.557 10.513Z" fill="#252526"/>
<path d="M18.557 10.513L17.7262 9.95319L16.0403 12.4679L18.8944 11.4561L18.557 10.513ZM17.815 12.6646L18.607 12.0575L17.0785 10.0649L16.8207 12.5573L17.815 12.6646ZM18.3394 13.004L18.5604 12.0294L18.3394 13.004ZM19.8212 11.9886L20.7745 12.2939L19.8212 11.9886ZM19.139 10.4732L18.9181 11.4479L18.9181 11.4479L19.139 10.4732ZM20.7244 8.32025C19.4438 8.20539 18.3822 8.9747 17.7262 9.95319L19.3879 11.0728C19.7986 10.4601 20.2459 10.2853 20.5544 10.313L20.7244 8.32025ZM23.8423 13.3037C23.9438 12.1143 23.7102 10.9644 23.1989 10.0613C22.6902 9.16302 21.8432 8.4206 20.7244 8.32025L20.5544 10.313C20.8274 10.3375 21.1704 10.5298 21.4605 11.0421C21.7479 11.5497 21.9219 12.2862 21.8503 13.125L23.8423 13.3037ZM19.9277 17.6564C21.0465 17.7567 22.0063 17.1764 22.6594 16.3823C23.316 15.584 23.7408 14.4931 23.8423 13.3037L21.8503 13.125C21.7787 13.9639 21.4826 14.6582 21.1136 15.1069C20.7412 15.5598 20.3708 15.6881 20.0978 15.6636L19.9277 17.6564ZM16.8098 12.6729C16.7083 13.8623 16.9419 15.0123 17.4533 15.9153C17.9619 16.8136 18.8089 17.556 19.9277 17.6564L20.0978 15.6636C19.8247 15.6391 19.4817 15.4468 19.1916 14.9345C18.9042 14.427 18.7302 13.6904 18.8018 12.8516L16.8098 12.6729ZM16.8207 12.5573C16.8167 12.5957 16.8131 12.6343 16.8098 12.6729L18.8018 12.8516C18.8041 12.8249 18.8066 12.7982 18.8093 12.7718L16.8207 12.5573ZM18.5604 12.0294C18.5674 12.031 18.5783 12.0351 18.5895 12.0424C18.6003 12.0495 18.6057 12.0559 18.607 12.0575L17.023 13.2716C17.2865 13.615 17.6628 13.8735 18.1185 13.9787L18.5604 12.0294ZM18.868 11.6834C18.8241 11.8223 18.7381 11.9267 18.6545 11.984C18.569 12.0426 18.5355 12.0236 18.5604 12.0294L18.1185 13.9787C19.3618 14.266 20.4439 13.3402 20.7745 12.2939L18.868 11.6834ZM18.9181 11.4479C18.9068 11.4453 18.8913 11.438 18.8791 11.4274C18.8684 11.4183 18.8701 11.4152 18.8759 11.4283C18.8885 11.4563 18.9118 11.5449 18.868 11.6834L20.7745 12.2939C21.1114 11.2276 20.7055 9.80944 19.36 9.49853L18.9181 11.4479ZM18.8944 11.4561C18.9106 11.4503 18.9204 11.4492 18.9235 11.4489C18.9262 11.4487 18.9238 11.4492 18.9181 11.4479L19.36 9.49853C18.9603 9.40618 18.5665 9.44692 18.2197 9.56986L18.8944 11.4561Z" fill="black" mask="url(#path-6-inside-2)"/>
<mask id="path-8-inside-3" fill="white">
<path fill-rule="evenodd" clip-rule="evenodd" d="M7.41494 9.51373C7.94831 8.71813 8.70274 8.24609 9.4973 8.31736C10.8891 8.4422 11.8773 10.1869 11.7042 12.2151C11.5311 14.2433 10.2624 15.7856 8.87064 15.6607C7.47883 15.5359 6.49063 13.7912 6.66372 11.763C6.66651 11.7303 6.66958 11.6978 6.67293 11.6654C6.80168 11.8332 6.98019 11.9547 7.19725 12.0048C7.79484 12.1429 8.45828 11.6883 8.6791 10.9894C8.89991 10.2905 8.59447 9.61206 7.99689 9.47398C7.80407 9.42943 7.60439 9.44658 7.41494 9.51373Z"/>
</mask>
<path fill-rule="evenodd" clip-rule="evenodd" d="M7.41494 9.51373C7.94831 8.71813 8.70274 8.24609 9.4973 8.31736C10.8891 8.4422 11.8773 10.1869 11.7042 12.2151C11.5311 14.2433 10.2624 15.7856 8.87064 15.6607C7.47883 15.5359 6.49063 13.7912 6.66372 11.763C6.66651 11.7303 6.66958 11.6978 6.67293 11.6654C6.80168 11.8332 6.98019 11.9547 7.19725 12.0048C7.79484 12.1429 8.45828 11.6883 8.6791 10.9894C8.89991 10.2905 8.59447 9.61206 7.99689 9.47398C7.80407 9.42943 7.60439 9.44658 7.41494 9.51373Z" fill="#252526"/>
<path d="M7.41494 9.51373L6.5841 8.95395L4.89838 11.4684L7.75225 10.4569L7.41494 9.51373ZM6.67293 11.6654L7.46486 11.0583L5.93637 9.06596L5.67861 11.5582L6.67293 11.6654ZM7.19725 12.0048L7.4182 11.0301L7.4182 11.0301L7.19725 12.0048ZM7.99689 9.47398L7.77594 10.4487L7.77594 10.4487L7.99689 9.47398ZM9.58233 7.32098C8.3017 7.20612 7.24009 7.97545 6.5841 8.95395L8.24579 10.0735C8.65654 9.46081 9.10379 9.28607 9.41227 9.31374L9.58233 7.32098ZM12.7002 12.3044C12.8017 11.115 12.5681 9.96511 12.0568 9.06205C11.5481 8.16375 10.7011 7.42133 9.58233 7.32098L9.41227 9.31374C9.68529 9.33823 10.0283 9.53056 10.3184 10.0429C10.6058 10.5504 10.7798 11.2869 10.7082 12.1258L12.7002 12.3044ZM8.78561 16.6571C9.90439 16.7575 10.8643 16.1771 11.5174 15.383C12.1739 14.5847 12.5987 13.4938 12.7002 12.3044L10.7082 12.1258C10.6366 12.9646 10.3405 13.659 9.97154 14.1076C9.59907 14.5605 9.22868 14.6888 8.95566 14.6644L8.78561 16.6571ZM5.66772 11.6737C5.56622 12.8631 5.79979 14.013 6.31117 14.916C6.81984 15.8143 7.66682 16.5568 8.78561 16.6571L8.95566 14.6644C8.68264 14.6399 8.33962 14.4475 8.04952 13.9352C7.76211 13.4277 7.58814 12.6912 7.65972 11.8523L5.66772 11.6737ZM5.67861 11.5582C5.67465 11.5966 5.67101 11.635 5.66772 11.6737L7.65972 11.8523C7.662 11.8256 7.66451 11.799 7.66725 11.7726L5.67861 11.5582ZM7.4182 11.0301C7.42521 11.0318 7.43614 11.0358 7.44735 11.0432C7.4581 11.0502 7.46358 11.0566 7.46486 11.0583L5.881 12.2725C6.14443 12.6158 6.52075 12.8742 6.9763 12.9795L7.4182 11.0301ZM7.72587 10.6841C7.68197 10.8231 7.59594 10.9275 7.51232 10.9848C7.42689 11.0433 7.39331 11.0244 7.4182 11.0301L6.9763 12.9795C8.21964 13.2668 9.30177 12.3409 9.63233 11.2947L7.72587 10.6841ZM7.77594 10.4487C7.76464 10.4461 7.74914 10.4387 7.73692 10.4282C7.72624 10.419 7.7279 10.416 7.73378 10.4291C7.74638 10.4571 7.76963 10.5456 7.72587 10.6841L9.63233 11.2947C9.96923 10.2284 9.56338 8.81021 8.21783 8.4993L7.77594 10.4487ZM7.75225 10.4569C7.7685 10.4511 7.77829 10.4499 7.7814 10.4497C7.78408 10.4495 7.78165 10.45 7.77594 10.4487L8.21783 8.4993C7.81818 8.40695 7.4244 8.44769 7.07764 8.5706L7.75225 10.4569Z" fill="black" mask="url(#path-8-inside-3)"/>
</svg>
